<svg width="187" height="32" viewBox="0 0 187 32" fill="none" xmlns="http://www.w3.org/2000/svg">
<path d="M23.2829 6.90486C24.9645 8.32353 26.1345 10.2623 26.4228 12.4553C26.5386 14.0145 26.3965 15.4211 25.8555 16.8867C25.806 17.0323 25.7569 17.1779 25.7085 17.3239C25.7519 17.352 25.7954 17.3802 25.8402 17.4092C26.2658 17.6873 26.6523 17.9489 26.9855 18.3348C27.6296 19.0748 28.3846 19.5255 29.3807 19.5985C30.9597 19.6439 32.4031 18.9745 33.7006 18.1421C33.9528 18.0064 34.1116 18.0474 34.3817 18.1253C34.5936 18.3139 34.6646 18.431 34.717 18.7082C34.6482 19.0718 34.4288 19.2064 34.1399 19.4092C32.5119 20.4779 30.6256 21.1233 28.6681 20.7984C27.4209 20.5381 26.4852 19.8569 25.6737 18.9069C25.4186 18.6209 25.1848 18.4473 24.8003 18.3917C23.7478 18.3342 22.8981 18.931 22.0288 19.4459C20.9737 20.0679 19.9876 20.5275 18.7258 20.2653C18.021 20.044 17.4602 19.6012 16.9801 19.0543C16.6092 18.6327 16.3372 18.4095 15.7536 18.3667C14.8235 18.4033 13.9829 18.9799 13.2046 19.4369C12.2049 20.0221 11.2413 20.4548 10.0526 20.3111C9.13409 20.0692 8.52414 19.475 7.88887 18.8129C7.10944 18.078 6.28978 17.792 5.21783 17.8142C3.92152 17.8747 2.65674 18.4437 1.60228 19.1668C1.36341 19.3222 1.24193 19.3644 0.952428 19.3506C0.61366 19.2647 0.61366 19.2647 0.497349 19.0725C0.427123 18.804 0.389349 18.6377 0.506824 18.3815C1.16828 17.4999 2.70779 17.0405 3.73143 16.741C3.78752 16.7238 3.84361 16.7066 3.9014 16.6889C5.23399 16.3354 6.7272 16.5083 7.93309 17.1576C8.49638 17.5097 8.93629 17.9403 9.39106 18.4168C9.70653 18.7397 9.95935 18.9941 10.4342 19.005C10.5023 19.0033 10.5704 19.0015 10.6406 18.9996C10.6067 18.9595 10.5728 18.9194 10.5378 18.8781C9.11715 17.083 8.61916 14.7662 8.85358 12.5288C8.98504 11.5232 9.28888 10.5737 9.75857 9.67355C9.79249 9.60573 9.82641 9.53792 9.86136 9.46806C10.4372 8.36105 11.2648 7.43895 12.2576 6.68628C12.3158 6.64204 12.374 6.59781 12.4339 6.55223C15.6559 4.21256 20.2296 4.35015 23.2829 6.90486ZM11.8166 8.79922C10.5063 10.3578 9.90284 12.3389 10.073 14.3602C10.2623 15.9275 10.8737 17.5229 12.0371 18.6353C12.077 18.6133 12.117 18.5914 12.1581 18.5687C15.1023 16.9489 15.1023 16.9489 16.4487 17.2234C17.1798 17.4567 17.7665 17.9252 18.2489 18.5073C18.499 18.8001 18.8042 19.0386 19.1918 19.0995C20.1785 19.1245 21.0019 18.6075 21.8221 18.1208C22.5104 17.7126 23.176 17.3327 23.9754 17.1927C24.2567 17.1265 24.2567 17.1265 24.4141 16.8745C24.4621 16.778 24.5076 16.6803 24.5508 16.5816C24.5751 16.5299 24.5993 16.4783 24.6243 16.4251C25.4084 14.6919 25.3959 12.6993 24.7289 10.9316C23.9782 9.07923 22.5553 7.58531 20.7143 6.76853C20.3756 6.62617 20.0317 6.50554 19.6813 6.39484C19.6043 6.36995 19.5273 6.34506 19.4479 6.31942C16.6447 5.57542 13.6969 6.7118 11.8166 8.79922Z" fill="#388893"/>
<path d="M8.50911 23.3712C8.79378 23.6237 9.05513 23.8979 9.31763 24.1727C9.71083 24.5681 9.97926 24.8336 10.558 24.8558C11.5118 24.8361 12.2755 24.2914 13.0682 23.8213C14.1268 23.1994 15.1954 22.728 16.4505 22.9788C17.1533 23.207 17.712 23.643 18.193 24.1909C18.5052 24.5457 18.7241 24.7793 19.2117 24.8603C20.2785 24.9275 21.1731 24.2576 22.0495 23.7396C22.5683 23.4357 23.0695 23.1754 23.6505 23.0069C23.6962 22.9928 23.742 22.9788 23.7891 22.9642C24.5957 22.8076 25.3628 22.9303 26.0617 23.349C26.4939 23.6422 26.8293 23.9768 27.1711 24.3677C27.8086 25.0666 28.6017 25.3432 29.5306 25.4113C29.5913 25.4138 29.652 25.4163 29.7145 25.4189C30.1497 25.4454 30.1497 25.4454 30.3785 25.6547C30.5196 25.9088 30.5229 26.0724 30.4861 26.3585C30.3568 26.5906 30.3025 26.6378 30.0451 26.7228C28.7109 26.8465 27.5268 26.3864 26.5053 25.577C26.2518 25.3649 26.0308 25.145 25.8188 24.8922C25.5183 24.5482 25.2404 24.3009 24.7814 24.2057C23.751 24.1338 22.8049 24.8061 21.9585 25.3117C20.9303 25.9234 19.947 26.3439 18.7244 26.0947C18.0205 25.8701 17.4607 25.4305 16.9802 24.8831C16.6092 24.4615 16.3372 24.2383 15.7536 24.1955C14.7596 24.2346 13.845 24.8863 13.0142 25.3732C12.0474 25.9394 11.1881 26.2561 10.0526 26.1399C9.2748 25.9394 8.70148 25.4935 8.18294 24.9013C7.59351 24.2338 6.83736 23.7634 5.93654 23.6627C5.59261 23.6633 5.24861 23.675 4.90508 23.6911C4.37481 23.7026 4.37481 23.7026 4.0878 23.4956C3.91112 23.239 3.90726 23.0933 3.952 22.7884C4.05814 22.6096 4.12587 22.5158 4.32123 22.4366C5.80336 22.173 7.3044 22.4463 8.50911 23.3712Z" fill="#388893"/>
<path d="M17.2465 29.183C17.634 29.4481 17.9505 29.732 18.2489 30.092C18.5038 30.3905 18.8084 30.6195 19.2001 30.6894C20.2598 30.7349 21.1597 30.1138 22.0348 29.5911C23.063 28.9794 24.0463 28.5589 25.2688 28.8081C25.9755 29.0336 26.6801 29.4866 27.0315 30.1472C27.0765 30.4399 27.0815 30.5819 26.9166 30.8303C26.6654 30.9963 26.5272 31.0366 26.2229 31.0215C26.0014 30.8767 25.822 30.697 25.6349 30.5115C25.216 30.1412 24.9136 30.0326 24.3512 30.0419C23.502 30.148 22.7472 30.6779 22.0287 31.1035C20.9736 31.7255 19.9875 32.1851 18.7258 31.9229C18.0209 31.7016 17.4602 31.2588 16.9801 30.7119C16.6091 30.2903 16.3371 30.0671 15.7535 30.0243C14.8109 30.0646 13.9938 30.6384 13.2085 31.1035C12.1885 31.7044 11.2589 32.12 10.0525 31.9687C9.29393 31.7702 8.58002 31.3093 8.1415 30.6572C8.0634 30.3977 8.0634 30.3977 8.06799 30.1472C8.19783 29.9431 8.29074 29.8182 8.509 29.7101C8.81231 29.6691 8.92213 29.6903 9.17511 29.8694C9.31491 29.9965 9.44377 30.1293 9.57478 30.2656C9.89588 30.568 10.1649 30.6728 10.6038 30.6982C11.5828 30.6639 12.414 30.0502 13.2292 29.5684C13.748 29.2645 14.2491 29.0042 14.8302 28.8357C14.8759 28.8217 14.9217 28.8076 14.9688 28.793C15.7771 28.6361 16.5486 28.7581 17.2465 29.183Z" fill="#388893"/>
<path d="M15.5653 8.36205C15.8366 8.55091 15.9202 8.65651 15.9787 8.98136C15.9221 9.29571 15.8172 9.4206 15.5653 9.60067C15.3622 9.73287 15.1568 9.86112 14.9508 9.98888C14.1335 10.5019 13.6375 11.3138 13.2856 12.1912C13.1058 12.634 13.1058 12.634 12.8916 12.7792C12.6505 12.8133 12.4909 12.8074 12.2577 12.7337C12.0785 12.5879 12.0785 12.5879 11.9637 12.3694C11.8979 11.3751 12.7309 10.2922 13.3551 9.58587C13.709 9.21673 14.1061 8.9296 14.5362 8.65349C14.5834 8.62165 14.6306 8.58981 14.6792 8.55701C14.9818 8.36534 15.2099 8.30334 15.5653 8.36205Z" fill="#388893"/>
<path d="M4.76226 13.0122C4.85096 13.0108 4.85096 13.0108 4.94144 13.0094C5.03689 13.0086 5.03689 13.0086 5.13425 13.0077C5.23281 13.0068 5.23281 13.0068 5.33336 13.0059C5.47238 13.0049 5.61139 13.0042 5.75041 13.0036C5.96272 13.0023 6.17494 12.9991 6.38723 12.9959C6.52237 12.9952 6.6575 12.9946 6.79264 12.9941C6.85597 12.9928 6.9193 12.9915 6.98455 12.9902C7.28413 12.9913 7.4411 13.0015 7.70212 13.1597C7.89061 13.363 7.92101 13.4783 7.92101 13.7537C7.75757 14.1626 7.75757 14.1626 7.5535 14.2637C7.4481 14.2713 7.34236 14.2745 7.23668 14.2755C7.13844 14.2765 7.13844 14.2765 7.0382 14.2776C6.93186 14.278 6.93186 14.278 6.82336 14.2785C6.71433 14.2791 6.71433 14.2791 6.6031 14.2798C6.44919 14.2805 6.29528 14.2809 6.14137 14.2812C5.90551 14.2819 5.6697 14.2842 5.43386 14.2865C5.28451 14.287 5.13516 14.2873 4.98582 14.2876C4.87969 14.289 4.87969 14.289 4.77142 14.2903C4.70569 14.2901 4.63996 14.2899 4.57224 14.2897C4.4855 14.2901 4.4855 14.2901 4.39701 14.2905C4.20374 14.2562 4.14183 14.2001 4.02541 14.0451C3.90301 13.5436 3.90301 13.5436 4.08054 13.2482C4.301 13.0479 4.47385 13.0162 4.76226 13.0122Z" fill="#388893"/>
<path d="M8.04453 3.66229C8.4349 3.67337 8.62397 3.87412 8.88578 4.14072C8.9555 4.209 8.9555 4.209 9.02663 4.27865C9.12419 4.37496 9.22101 4.47201 9.31713 4.56974C9.4642 4.71864 9.61413 4.86417 9.76464 5.00964C9.85929 5.10384 9.95376 5.19823 10.048 5.29282C10.0928 5.33603 10.1376 5.37924 10.1837 5.42376C10.4007 5.6486 10.5216 5.80411 10.5333 6.12189C10.4936 6.39483 10.4936 6.39483 10.3053 6.61796C9.99012 6.79405 9.88386 6.7784 9.53811 6.68627C9.3505 6.56071 9.19783 6.40863 9.04025 6.24826C8.99547 6.20411 8.95069 6.15997 8.90456 6.11449C8.81051 6.02125 8.71701 5.92746 8.62404 5.83317C8.48183 5.68931 8.33758 5.54771 8.19297 5.40624C8.10163 5.31515 8.01042 5.22394 7.91934 5.13259C7.87632 5.09045 7.8333 5.04831 7.78897 5.00489C7.54258 4.75203 7.41254 4.5769 7.40656 4.20903C7.56408 3.88186 7.67203 3.71286 8.04453 3.66229Z" fill="#388893"/>
<path d="M27.3255 3.77187C27.5647 3.92996 27.6104 4.02074 27.6701 4.30011C27.6183 4.57974 27.5902 4.63322 27.4076 4.83204C27.361 4.88284 27.3144 4.93364 27.2664 4.98598C26.9574 5.312 26.6453 5.63438 26.3286 5.95312C26.2948 5.98809 26.2609 6.02306 26.226 6.05908C26.1262 6.16191 26.0252 6.26345 25.9241 6.36495C25.8355 6.45496 25.8355 6.45496 25.7451 6.5468C25.53 6.71018 25.3892 6.74589 25.1205 6.75913C24.9089 6.65903 24.7713 6.55878 24.606 6.39483C24.5406 5.9191 24.5406 5.9191 24.6854 5.68173C24.801 5.55005 24.9225 5.43067 25.051 5.31132C25.0963 5.26704 25.1416 5.22276 25.1884 5.17713C25.3328 5.03667 25.4793 4.89839 25.6258 4.76003C25.7238 4.66515 25.8217 4.57014 25.9195 4.475C26.7731 3.64914 26.7731 3.64914 27.3255 3.77187Z" fill="#388893"/>
<path d="M28.5061 13.1224C28.57 13.1221 28.6338 13.1217 28.6996 13.1214C28.8343 13.1211 28.969 13.1218 29.1037 13.1233C29.3094 13.1253 29.5149 13.1234 29.7206 13.121C29.8517 13.1213 29.9828 13.1217 30.1139 13.1224C30.2058 13.1213 30.2058 13.1213 30.2996 13.1202C30.6154 13.1265 30.7443 13.1437 31.0031 13.3398C31.1914 13.5945 31.193 13.7358 31.1476 14.0451C31.0182 14.2772 30.9639 14.3244 30.7066 14.4094C30.4985 14.4174 30.2924 14.4214 30.0844 14.4217C30.0234 14.4219 29.9624 14.4222 29.8996 14.4224C29.7706 14.4228 29.6417 14.423 29.5127 14.4229C29.3156 14.4231 29.1185 14.4244 28.9214 14.4258C28.7961 14.426 28.6708 14.4262 28.5454 14.4262C28.4865 14.4268 28.4277 14.4273 28.367 14.4278C27.8494 14.4257 27.8494 14.4257 27.6195 14.2637C27.4504 14.0292 27.4318 13.8174 27.4725 13.5351C27.7748 13.1302 28.0329 13.1167 28.5061 13.1224Z" fill="#388893"/>
<path d="M17.9908 0.128869C18.1397 0.350223 18.1564 0.394394 18.158 0.643017C18.159 0.731644 18.159 0.731644 18.1601 0.822063C18.1601 0.885592 18.16 0.949121 18.1599 1.01457C18.1602 1.08005 18.1605 1.14553 18.1609 1.21299C18.1613 1.3514 18.1613 1.48982 18.161 1.62823C18.1608 1.84028 18.1625 2.05226 18.1644 2.2643C18.1645 2.39873 18.1646 2.53316 18.1645 2.66759C18.1652 2.73112 18.1659 2.79465 18.1666 2.8601C18.1661 2.91919 18.1656 2.97827 18.1652 3.03915C18.1652 3.09107 18.1653 3.14299 18.1653 3.19649C18.1291 3.37836 18.0641 3.44113 17.9173 3.55329C17.6353 3.62578 17.4689 3.65237 17.1961 3.54419C17.0034 3.3805 16.9627 3.283 16.8883 3.04327C16.8736 2.85319 16.8659 2.67114 16.8662 2.48117C16.8659 2.42774 16.8655 2.3743 16.8652 2.31925C16.8648 2.20664 16.8648 2.09402 16.8651 1.98141C16.8653 1.80999 16.8636 1.63866 16.8617 1.46725C16.8616 1.35743 16.8615 1.24762 16.8616 1.13781C16.8609 1.08702 16.8602 1.03624 16.8595 0.983909C16.8627 0.646249 16.9291 0.415437 17.1088 0.128869C17.4222 -0.0782721 17.6534 -0.00363405 17.9908 0.128869Z" fill="#388893"/>
<path d="M12.6987 1.87749C12.8381 2.04366 12.9201 2.22656 13.0065 2.42394C13.0309 2.47642 13.0554 2.52891 13.0807 2.58298C13.1512 2.73566 13.2191 2.88929 13.2867 3.04325C13.3214 3.11792 13.356 3.19258 13.3918 3.26952C13.5369 3.59734 13.6107 3.78175 13.5072 4.13615C13.3829 4.31849 13.2945 4.41121 13.0734 4.45577C12.826 4.46901 12.6881 4.47252 12.4813 4.32485C12.2593 4.04583 12.1292 3.73655 11.9866 3.4121C11.957 3.34697 11.9274 3.28184 11.8969 3.21473C11.5511 2.44125 11.5511 2.44125 11.6788 2.08241C11.8167 1.87749 11.8167 1.87749 11.982 1.7682C12.2684 1.71659 12.4302 1.76631 12.6987 1.87749Z" fill="#388893"/>
<path d="M7.53514 8.38027C7.59663 8.40816 7.65812 8.43606 7.72148 8.4648C8.05936 8.62451 8.31347 8.75991 8.50904 9.09065C8.50904 9.37628 8.47613 9.54032 8.3161 9.77827C8.08127 9.93141 7.89697 9.93506 7.62702 9.89211C7.34204 9.79595 7.07241 9.67279 6.80012 9.54603C6.72717 9.51372 6.65421 9.48141 6.57904 9.44812C5.96972 9.16985 5.96972 9.16985 5.78947 8.87207C5.75979 8.58958 5.76743 8.37808 5.93648 8.14347C6.39438 7.77685 7.08752 8.16503 7.53514 8.38027Z" fill="#388893"/>
<path d="M23.2829 1.8775C23.4687 2.15369 23.4797 2.35978 23.4299 2.67896C23.3331 2.96557 23.2072 3.23508 23.0762 3.50775C23.043 3.58035 23.0098 3.65295 22.9756 3.72775C22.7252 4.2619 22.7252 4.2619 22.4744 4.42761C22.1734 4.46076 22.012 4.45794 21.7486 4.30465C21.5697 4.11174 21.5422 4.0291 21.5189 3.77187C21.6069 3.46701 21.7514 3.18458 21.8864 2.89754C21.907 2.85215 21.9275 2.80675 21.9487 2.75997C22.0123 2.61994 22.0776 2.4809 22.1437 2.34199C22.1838 2.25689 22.224 2.1718 22.2654 2.08413C22.542 1.66245 22.8417 1.7042 23.2829 1.8775Z" fill="#388893"/>
<path d="M29.1631 7.85202C29.3883 8.00088 29.4439 8.10272 29.526 8.35749C29.5317 8.63715 29.4819 8.7238 29.3101 8.94493C29.1344 9.06592 28.9476 9.15566 28.7542 9.24547C28.7015 9.27049 28.6489 9.2955 28.5946 9.32127C27.5745 9.7961 27.5745 9.7961 27.1418 9.67353C26.9322 9.50733 26.8658 9.42293 26.811 9.16351C26.8018 8.94493 26.8018 8.94493 26.8845 8.72635C27.0823 8.57344 27.2507 8.47294 27.4725 8.36205C27.5142 8.34047 27.5558 8.31889 27.5988 8.29666C27.7396 8.22417 27.8815 8.15393 28.0238 8.08427C28.0917 8.0499 28.0917 8.0499 28.1611 8.01484C28.5097 7.8507 28.7773 7.8208 29.1631 7.85202Z" fill="#388893"/>
<path d="M40.0069 21.8096H41.5116L41.5204 9.64845H40.0069V8.95807H46.6805C48.0672 8.95807 49.0968 9.27671 49.7695 9.91397C50.4481 10.5453 50.7874 11.3596 50.7874 12.3568C50.7874 13.5193 50.2504 14.3778 49.1765 14.9325C48.8579 15.0977 48.5215 15.2275 48.1675 15.3219C49.3063 15.4576 50.1766 15.8234 50.7785 16.4194C51.3804 17.0154 51.6813 17.747 51.6813 18.6144C51.6813 19.8064 51.2447 20.7534 50.3714 21.4556C49.504 22.1519 48.2619 22.5 46.6451 22.5H40.0069V21.8096ZM46.0698 15.136C47.3502 15.136 48.1144 14.5873 48.3622 13.4898C48.4389 13.1593 48.4773 12.8053 48.4773 12.4276C48.4773 11.5307 48.3327 10.8817 48.0436 10.4804C47.6541 9.92578 46.9166 9.64845 45.8308 9.64845H43.9013V15.136H46.0698ZM45.9548 21.8096C47.0287 21.8096 47.8489 21.553 48.4153 21.0396C48.9877 20.5262 49.2739 19.7975 49.2739 18.8534C49.2739 17.4668 48.7221 16.5404 47.6187 16.0742C47.2175 15.9031 46.7277 15.8175 46.1495 15.8175H43.9013V21.8096H45.9548ZM53.2745 21.8008H55.0447L55.0535 9.64845H53.2745V8.95807H64.7187V12.8171H64.0284C63.9989 12.3273 63.9575 11.8936 63.9044 11.516C63.8513 11.1325 63.7392 10.8079 63.5681 10.5424C63.2259 9.99953 62.5296 9.70155 61.4793 9.64845H57.4344V15.2068H59.6471C60.1487 15.2068 60.5322 15.1272 60.7978 14.9679C61.0692 14.8026 61.2344 14.5165 61.2934 14.1093C61.3052 13.9913 61.3141 13.8674 61.32 13.7376C61.3318 13.6019 61.3436 13.4691 61.3554 13.3393H62.0989V17.9064H61.3554C61.3436 17.7707 61.3318 17.6143 61.32 17.4373C61.3141 17.2602 61.3052 17.1127 61.2934 16.9947C61.2344 16.5876 61.0662 16.3043 60.7889 16.145C60.5175 15.9798 60.1369 15.8972 59.6471 15.8972H57.4344V21.8096H61.2226C62.7745 21.8096 63.7156 21.0927 64.0461 19.6589C64.1405 19.2458 64.2024 18.821 64.2319 18.3843H64.9223V22.5H53.2745V21.8008ZM66.427 21.8096H67.3829L72.3748 8.95807H73.4015L78.7386 21.8096H79.6414V22.5H74.8176V21.8096H76.1453L74.8707 18.7207H69.4982L68.3299 21.8096H69.9231V22.5H66.427V21.8096ZM74.5875 18.0303L72.0739 11.9143L69.7638 18.0303H74.5875ZM91.3866 9.91397C91.6226 9.63665 91.7465 9.31801 91.7583 8.95807H92.4841V12.6666H91.7318C91.5607 11.6871 91.0916 10.9171 90.3245 10.3565C89.5633 9.79596 88.7343 9.51568 87.8374 9.51568C84.8516 9.51568 83.3706 11.6016 83.3942 15.7733C83.4119 17.4314 83.7423 18.8092 84.3855 19.9067C85.129 21.1753 86.2088 21.8096 87.6249 21.8096C88.7048 21.8096 89.6164 21.6208 90.3599 21.2432C91.1093 20.8596 91.6964 20.3433 92.1212 19.6943L92.5815 20.1191C92.3572 20.6561 91.8911 21.1694 91.183 21.6592C90.2094 22.3377 88.988 22.677 87.5187 22.677C85.4299 22.677 83.7659 22.028 82.5268 20.7298C81.2877 19.4258 80.6681 17.7677 80.6681 15.7556C80.6681 13.7435 81.2847 12.0795 82.518 10.7637C83.7571 9.44192 85.4771 8.78106 87.678 8.78106C88.87 8.78106 89.9085 9.02298 90.7936 9.50683C91.0414 9.64255 91.2391 9.77826 91.3866 9.91397ZM93.8825 21.8096H95.2633L95.2721 9.64845H93.8825V8.95807H99.1489V9.64845H97.653V15.3661H104.238L104.247 9.64845H102.751V8.95807H108.017V9.64845H106.628V21.8096H108.009V22.5H102.751V21.8096H104.238V16.0565H97.653V21.8096H99.14V22.5H93.8825V21.8096ZM115.488 21.8096H116.992L117.001 9.64845H115.488V8.95807H122.161C123.548 8.95807 124.578 9.27671 125.25 9.91397C125.929 10.5453 126.268 11.3596 126.268 12.3568C126.268 13.5193 125.731 14.3778 124.657 14.9325C124.339 15.0977 124.002 15.2275 123.648 15.3219C124.787 15.4576 125.657 15.8234 126.259 16.4194C126.861 17.0154 127.162 17.747 127.162 18.6144C127.162 19.8064 126.725 20.7534 125.852 21.4556C124.985 22.1519 123.743 22.5 122.126 22.5H115.488V21.8096ZM121.551 15.136C122.831 15.136 123.595 14.5873 123.843 13.4898C123.92 13.1593 123.958 12.8053 123.958 12.4276C123.958 11.5307 123.813 10.8817 123.524 10.4804C123.135 9.92578 122.397 9.64845 121.312 9.64845H119.382V15.136H121.551ZM121.436 21.8096C122.509 21.8096 123.33 21.553 123.896 21.0396C124.468 20.5262 124.755 19.7975 124.755 18.8534C124.755 17.4668 124.203 16.5404 123.099 16.0742C122.698 15.9031 122.208 15.8175 121.63 15.8175H119.382V21.8096H121.436ZM129.747 9.64845H128.534V8.95807H133.42V9.64845H132.127V17.8533C132.127 19.9952 132.729 21.2638 133.933 21.6592C134.334 21.789 134.724 21.8539 135.101 21.8539C135.485 21.8539 135.815 21.8362 136.093 21.8008C136.376 21.7654 136.656 21.6975 136.933 21.5972C137.553 21.3612 138.06 20.9363 138.456 20.3227C138.857 19.709 139.058 18.8328 139.058 17.6939V9.64845H137.677V8.95807H141.217V9.64845H139.925V17.8179C139.925 19.4523 139.5 20.6708 138.651 21.4733C137.801 22.2758 136.647 22.677 135.19 22.677C132.446 22.677 130.723 21.6385 130.021 19.5615C129.832 19.0068 129.738 18.3371 129.738 17.5523L129.747 9.64845ZM142.492 21.8096H144.262L144.271 9.64845H142.492V8.95807H148.457C152.015 8.95807 154.317 10.0821 155.361 12.3303C155.792 13.2567 156.007 14.3542 156.007 15.6228C156.007 17.3104 155.517 18.7826 154.538 20.0394C153.747 21.0484 152.6 21.7595 151.095 22.1725C150.304 22.3908 149.384 22.5 148.333 22.5H142.492V21.8096ZM148.227 21.8096C150.086 21.8096 151.417 21.3464 152.219 20.42C153.022 19.4936 153.423 17.9152 153.423 15.6848V15.4104C153.387 13.2744 152.957 11.7815 152.131 10.9318C151.31 10.0762 150.048 9.64845 148.342 9.64845H146.652V21.8096H148.227ZM157.609 21.8096H159.379L159.388 9.64845H157.609V8.95807H163.575C167.133 8.95807 169.434 10.0821 170.479 12.3303C170.909 13.2567 171.125 14.3542 171.125 15.6228C171.125 17.3104 170.635 18.7826 169.655 20.0394C168.865 21.0484 167.717 21.7595 166.212 22.1725C165.422 22.3908 164.501 22.5 163.451 22.5H157.609V21.8096ZM163.345 21.8096C165.203 21.8096 166.534 21.3464 167.336 20.42C168.139 19.4936 168.54 17.9152 168.54 15.6848V15.4104C168.505 13.2744 168.074 11.7815 167.248 10.9318C166.428 10.0762 165.165 9.64845 163.46 9.64845H161.769V21.8096H163.345ZM175.957 21.8096H177.71L177.719 17.278L173.187 9.64845H172.081V8.95807H177.781V9.64845H175.984L179.604 16.0123L183.197 9.64845H181.569V8.95807H185.481V9.64845H184.144L180.099 16.7292V21.8096H181.861V22.5H175.957V21.8096Z" fill="#388893"/>
</svg>
