<svg width="234" height="40" viewBox="0 0 234 40" fill="none" xmlns="http://www.w3.org/2000/svg">
<path d="M29.4118 8.62259C31.5117 10.3942 32.9728 12.8152 33.3328 15.5538C33.4774 17.5009 33.3 19.2574 32.6243 21.0876C32.5626 21.2694 32.5012 21.4513 32.4408 21.6335C32.4951 21.6687 32.5494 21.7039 32.6053 21.7402C33.1367 22.0873 33.6194 22.4141 34.0356 22.896C34.8398 23.82 35.7826 24.3829 37.0265 24.474C38.9983 24.5308 40.8008 23.6948 42.4212 22.6553C42.736 22.4858 42.9344 22.5371 43.2716 22.6344C43.5363 22.8698 43.6249 23.0161 43.6904 23.3623C43.6045 23.8163 43.3305 23.9844 42.9697 24.2376C40.9367 25.5722 38.5812 26.3782 36.1366 25.9724C34.5792 25.6474 33.4107 24.7968 32.3974 23.6103C32.0787 23.2533 31.7868 23.0365 31.3067 22.967C29.9924 22.8952 28.9313 23.6405 27.8457 24.2835C26.5281 25.0602 25.2967 25.6342 23.721 25.3067C22.8408 25.0303 22.1406 24.4774 21.5411 23.7944C21.0778 23.268 20.7381 22.9893 20.0094 22.9358C18.848 22.9815 17.7983 23.7016 16.8263 24.2722C15.5779 25.003 14.3746 25.5433 12.8901 25.3639C11.7432 25.0619 10.9815 24.3198 10.1882 23.4931C9.21483 22.5753 8.19127 22.2181 6.85264 22.2459C5.23385 22.3215 3.65443 23.0319 2.33765 23.9349C2.03935 24.129 1.88766 24.1817 1.52613 24.1644C1.10309 24.0571 1.10309 24.0571 0.95784 23.8172C0.870143 23.4819 0.822973 23.2743 0.969672 22.9542C1.79568 21.8534 3.71818 21.2796 4.99647 20.9056C5.06651 20.8842 5.13656 20.8627 5.20872 20.8406C6.87282 20.3992 8.7375 20.6151 10.2434 21.426C10.9468 21.8656 11.4962 22.4034 12.0641 22.9983C12.458 23.4016 12.7737 23.7193 13.3666 23.733C13.4517 23.7307 13.5368 23.7285 13.6244 23.7262C13.5821 23.6761 13.5397 23.626 13.4961 23.5744C11.722 21.3328 11.1001 18.4395 11.3929 15.6455C11.557 14.3898 11.9365 13.2041 12.523 12.08C12.5654 11.9954 12.6077 11.9107 12.6514 11.8234C13.3705 10.441 14.4039 9.28954 15.6437 8.34963C15.7164 8.29439 15.789 8.23915 15.8639 8.18223C19.8874 5.26052 25.599 5.43233 29.4118 8.62259ZM15.093 10.9882C13.4567 12.9345 12.7032 15.4085 12.9156 17.9326C13.152 19.8898 13.9155 21.8821 15.3684 23.2713C15.4182 23.2438 15.4681 23.2164 15.5194 23.1881C19.1961 21.1653 19.1961 21.1653 20.8774 21.5081C21.7905 21.7994 22.5231 22.3845 23.1255 23.1113C23.4377 23.477 23.8189 23.7749 24.3029 23.851C25.5351 23.8822 26.5633 23.2366 27.5875 22.6287C28.4471 22.119 29.2783 21.6446 30.2766 21.4697C30.6278 21.3871 30.6278 21.3871 30.8244 21.0723C30.8844 20.9519 30.9412 20.8298 30.9951 20.7066C31.0254 20.6421 31.0557 20.5776 31.0869 20.5112C32.066 18.3468 32.0505 15.8585 31.2175 13.6511C30.2801 11.3379 28.5032 9.47231 26.2042 8.45235C25.7812 8.27456 25.3518 8.12392 24.9142 7.98569C24.818 7.95461 24.7218 7.92353 24.6227 7.8915C21.1221 6.96242 17.4411 8.3815 15.093 10.9882Z" fill="#FBF9FF"/>
<path d="M10.9627 29.1854C11.3182 29.5006 11.6446 29.8431 11.9724 30.1862C12.4634 30.68 12.7986 31.0116 13.5213 31.0392C14.7124 31.0147 15.666 30.3345 16.656 29.7474C17.9779 28.9708 19.3124 28.3822 20.8796 28.6953C21.7574 28.9803 22.455 29.5248 23.0556 30.209C23.4455 30.6521 23.719 30.9437 24.3277 31.0449C25.66 31.1288 26.7772 30.2922 27.8716 29.6454C28.5194 29.2659 29.1452 28.9408 29.8708 28.7305C29.9279 28.7129 29.9851 28.6953 30.044 28.6771C31.0511 28.4815 32.0091 28.6347 32.8818 29.1577C33.4216 29.5238 33.8404 29.9416 34.2673 30.4297C35.0634 31.3025 36.0538 31.6479 37.2138 31.733C37.2895 31.7361 37.3653 31.7393 37.4433 31.7425C37.9869 31.7755 37.9869 31.7755 38.2725 32.0369C38.4488 32.3542 38.4529 32.5585 38.407 32.9158C38.2454 33.2056 38.1776 33.2645 37.8563 33.3707C36.1901 33.5252 34.7115 32.9506 33.4358 31.9398C33.1193 31.6751 32.8432 31.4004 32.5785 31.0847C32.2033 30.6551 31.8563 30.3464 31.2831 30.2275C29.9964 30.1377 28.8148 30.9772 27.7579 31.6086C26.4739 32.3724 25.246 32.8976 23.7193 32.5863C22.8402 32.3058 22.1412 31.7569 21.5411 31.0733C21.0779 30.5469 20.7382 30.2682 20.0094 30.2147C18.7682 30.2635 17.626 31.0773 16.5886 31.6854C15.3812 32.3924 14.3082 32.788 12.8902 32.6428C11.9189 32.3924 11.2029 31.8356 10.5554 31.0961C9.81932 30.2626 8.87506 29.6751 7.75015 29.5493C7.32065 29.5501 6.89108 29.5647 6.46209 29.5849C5.79991 29.5991 5.79991 29.5991 5.4415 29.3407C5.22086 29.0203 5.21604 28.8383 5.27191 28.4575C5.40446 28.2343 5.48903 28.1172 5.73299 28.0182C7.58383 27.6891 9.45829 28.0303 10.9627 29.1854Z" fill="#FBF9FF"/>
<path d="M21.8737 36.4429C22.3576 36.7739 22.7528 37.1285 23.1254 37.5781C23.4438 37.9509 23.8242 38.2369 24.3133 38.3241C25.6366 38.3809 26.7604 37.6053 27.8532 36.9525C29.1372 36.1887 30.3651 35.6635 31.8918 35.9748C32.7743 36.2564 33.6541 36.8221 34.0929 37.647C34.1491 38.0125 34.1553 38.1898 33.9495 38.5C33.6358 38.7073 33.4631 38.7577 33.0832 38.7389C32.8066 38.558 32.5826 38.3335 32.3489 38.102C31.8258 37.6394 31.4481 37.5039 30.7459 37.5155C29.6854 37.6479 28.7429 38.3097 27.8456 38.8412C26.5281 39.6179 25.2966 40.1919 23.721 39.8644C22.8408 39.5881 22.1406 39.0351 21.541 38.3522C21.0778 37.8257 20.7381 37.547 20.0093 37.4935C18.8322 37.5438 17.8118 38.2604 16.8312 38.8412C15.5574 39.5916 14.3965 40.1106 12.8901 39.9217C11.9428 39.6738 11.0513 39.0982 10.5036 38.2839C10.4061 37.9598 10.4061 37.9598 10.4119 37.647C10.574 37.3921 10.69 37.2362 10.9626 37.1011C11.3413 37.0499 11.4785 37.0765 11.7944 37.3001C11.969 37.4588 12.1299 37.6246 12.2935 37.7949C12.6945 38.1725 13.0304 38.3034 13.5785 38.3351C14.801 38.2922 15.8391 37.5259 16.857 36.9242C17.5049 36.5447 18.1307 36.2196 18.8562 36.0093C18.9134 35.9917 18.9705 35.9741 19.0294 35.956C20.0387 35.7599 21.0022 35.9123 21.8737 36.4429Z" fill="#FBF9FF"/>
<path d="M19.7742 10.4423C20.1131 10.6781 20.2174 10.81 20.2905 11.2157C20.2198 11.6082 20.0888 11.7642 19.7742 11.9891C19.5206 12.1541 19.2642 12.3143 19.0069 12.4738C17.9863 13.1144 17.3668 14.1283 16.9274 15.224C16.7028 15.777 16.7028 15.777 16.4355 15.9583C16.1343 16.0009 15.9351 15.9936 15.6438 15.9014C15.4201 15.7195 15.4201 15.7195 15.2767 15.4465C15.1945 14.2049 16.2348 12.8526 17.0142 11.9706C17.4561 11.5096 17.952 11.151 18.4892 10.8062C18.5481 10.7665 18.607 10.7267 18.6678 10.6858C19.0456 10.4464 19.3304 10.369 19.7742 10.4423Z" fill="#FBF9FF"/>
<path d="M6.28376 16.2493C6.39452 16.2476 6.39452 16.2476 6.50752 16.2458C6.6267 16.2448 6.6267 16.2448 6.74829 16.2437C6.87137 16.2426 6.87137 16.2426 6.99693 16.2415C7.17053 16.2403 7.34413 16.2393 7.51772 16.2386C7.78285 16.237 8.04787 16.233 8.31297 16.229C8.48173 16.2281 8.65048 16.2273 8.81924 16.2267C8.89832 16.2251 8.9774 16.2235 9.05888 16.2219C9.433 16.2232 9.62902 16.236 9.95496 16.4335C10.1904 16.6875 10.2283 16.8314 10.2283 17.1753C10.0242 17.6859 10.0242 17.6859 9.76937 17.8122C9.63775 17.8217 9.50571 17.8257 9.37374 17.8268C9.25106 17.8282 9.25106 17.8282 9.12589 17.8295C8.99309 17.8301 8.99309 17.8301 8.8576 17.8307C8.72145 17.8314 8.72145 17.8314 8.58255 17.8322C8.39035 17.8331 8.19815 17.8337 8.00595 17.834C7.71142 17.8349 7.41695 17.8378 7.12243 17.8406C6.93593 17.8412 6.74943 17.8417 6.56293 17.842C6.4304 17.8437 6.4304 17.8437 6.2952 17.8454C6.21312 17.8452 6.13104 17.8449 6.04647 17.8446C5.93815 17.8451 5.93815 17.8451 5.82765 17.8456C5.58629 17.8029 5.50898 17.7327 5.3636 17.5392C5.21075 16.913 5.21075 16.913 5.43244 16.5441C5.70775 16.2939 5.9236 16.2543 6.28376 16.2493Z" fill="#FBF9FF"/>
<path d="M10.3825 4.57336C10.87 4.58719 11.1061 4.83788 11.4331 5.17081C11.5201 5.25607 11.5201 5.25607 11.609 5.34305C11.7308 5.46333 11.8517 5.58452 11.9717 5.70655C12.1554 5.89249 12.3426 6.07423 12.5306 6.25589C12.6488 6.37353 12.7667 6.4914 12.8845 6.60952C12.9404 6.66348 12.9963 6.71744 13.0539 6.77303C13.3248 7.05381 13.4759 7.248 13.4904 7.64484C13.4409 7.98568 13.4409 7.98568 13.2057 8.26432C12.8122 8.48421 12.6795 8.46467 12.2477 8.34962C12.0134 8.19282 11.8228 8.00291 11.626 7.80264C11.5701 7.74752 11.5141 7.6924 11.4565 7.6356C11.3391 7.51916 11.2223 7.40204 11.1062 7.2843C10.9286 7.10465 10.7485 6.92783 10.5679 6.75115C10.4539 6.6374 10.34 6.5235 10.2262 6.40943C10.1725 6.3568 10.1188 6.30418 10.0634 6.24996C9.75573 5.9342 9.59334 5.71551 9.58587 5.25611C9.78258 4.84755 9.91738 4.63651 10.3825 4.57336Z" fill="#FBF9FF"/>
<path d="M34.4601 4.7102C34.7588 4.90763 34.8159 5.02099 34.8903 5.36985C34.8258 5.71905 34.7906 5.78583 34.5626 6.03411C34.5044 6.09755 34.4462 6.16099 34.3862 6.22635C34.0003 6.63347 33.6106 7.03606 33.2152 7.43408C33.1729 7.47775 33.1306 7.52142 33.087 7.56641C32.9625 7.69482 32.8363 7.82162 32.71 7.94837C32.5994 8.06077 32.5994 8.06077 32.4865 8.17545C32.2179 8.37948 32.0421 8.42408 31.7065 8.44061C31.4422 8.3156 31.2705 8.19041 31.064 7.98569C30.9823 7.39161 30.9823 7.39161 31.1632 7.09518C31.3075 6.93075 31.4593 6.78166 31.6197 6.63263C31.6763 6.57733 31.7329 6.52203 31.7913 6.46505C31.9717 6.28965 32.1545 6.11697 32.3375 5.9442C32.4599 5.82571 32.5822 5.70706 32.7043 5.58825C33.7703 4.55694 33.7703 4.55694 34.4601 4.7102Z" fill="#FBF9FF"/>
<path d="M35.9344 16.3869C36.0141 16.3864 36.0939 16.386 36.1761 16.3856C36.3442 16.3853 36.5124 16.3861 36.6806 16.388C36.9375 16.3904 37.1941 16.388 37.451 16.3851C37.6148 16.3854 37.7785 16.386 37.9422 16.3869C38.057 16.3855 38.057 16.3855 38.174 16.3841C38.5684 16.3919 38.7294 16.4135 39.0526 16.6583C39.2878 16.9763 39.2897 17.1529 39.233 17.5391C39.0714 17.8289 39.0036 17.8879 38.6823 17.9941C38.4225 18.004 38.1651 18.009 37.9053 18.0093C37.8291 18.0096 37.753 18.0099 37.6745 18.0103C37.5135 18.0107 37.3525 18.0109 37.1915 18.0109C36.9453 18.0111 36.6992 18.0128 36.453 18.0145C36.2965 18.0148 36.14 18.0149 35.9835 18.015C35.91 18.0157 35.8364 18.0163 35.7607 18.017C35.1144 18.0144 35.1144 18.0144 34.8272 17.8121C34.6161 17.5192 34.5928 17.2547 34.6436 16.9022C35.0211 16.3966 35.3435 16.3798 35.9344 16.3869Z" fill="#FBF9FF"/>
<path d="M22.8032 0.160928C22.9891 0.437349 23.0099 0.492508 23.0119 0.802981C23.0133 0.913657 23.0133 0.913657 23.0146 1.02657C23.0145 1.1059 23.0144 1.18523 23.0143 1.26697C23.0147 1.34874 23.0151 1.43051 23.0155 1.51475C23.0161 1.68759 23.0161 1.86044 23.0157 2.03329C23.0154 2.29809 23.0176 2.5628 23.0199 2.82759C23.0201 2.99546 23.0202 3.16334 23.0201 3.33121C23.0209 3.41054 23.0218 3.48987 23.0226 3.57161C23.0221 3.6454 23.0215 3.71918 23.0209 3.7952C23.021 3.86004 23.021 3.92488 23.0211 3.99169C22.9759 4.21879 22.8946 4.29719 22.7114 4.43725C22.3592 4.52777 22.1514 4.56098 21.8107 4.42588C21.5701 4.22147 21.5193 4.09971 21.4264 3.80035C21.4081 3.56299 21.3984 3.33564 21.3988 3.09841C21.3984 3.03169 21.398 2.96496 21.3976 2.89622C21.397 2.75559 21.397 2.61496 21.3974 2.47433C21.3977 2.26026 21.3955 2.04631 21.3932 1.83226C21.393 1.69513 21.3929 1.558 21.393 1.42087C21.3922 1.35744 21.3913 1.29402 21.3905 1.22868C21.3944 0.807018 21.4774 0.518786 21.7017 0.160928C22.0931 -0.097744 22.3819 -0.00453809 22.8032 0.160928Z" fill="#FBF9FF"/>
<path d="M16.1945 2.3446C16.3686 2.55211 16.471 2.78052 16.5789 3.027C16.6094 3.09254 16.64 3.15808 16.6715 3.2256C16.7596 3.41627 16.8444 3.60811 16.9288 3.80037C16.9721 3.89362 17.0154 3.98686 17.06 4.08293C17.2412 4.4923 17.3334 4.7226 17.2042 5.16516C17.0489 5.39286 16.9386 5.50864 16.6624 5.56429C16.3535 5.58082 16.1813 5.5852 15.9231 5.4008C15.6458 5.05237 15.4834 4.66615 15.3053 4.26099C15.2683 4.17965 15.2314 4.09831 15.1933 4.01451C14.7614 3.04861 14.7614 3.04861 14.921 2.6005C15.0931 2.3446 15.0931 2.3446 15.2996 2.20812C15.6571 2.14368 15.8593 2.20576 16.1945 2.3446Z" fill="#FBF9FF"/>
<path d="M9.74645 10.465C9.82323 10.4998 9.90002 10.5347 9.97914 10.5706C10.4011 10.77 10.7184 10.9391 10.9626 11.3521C10.9626 11.7088 10.9215 11.9137 10.7217 12.2108C10.4284 12.402 10.1983 12.4066 9.86118 12.353C9.50531 12.2329 9.16859 12.0791 8.82858 11.9208C8.73747 11.8804 8.64636 11.8401 8.5525 11.7985C7.79159 11.451 7.79159 11.451 7.56651 11.0792C7.52944 10.7264 7.53897 10.4623 7.75008 10.1693C8.3219 9.71149 9.18747 10.1962 9.74645 10.465Z" fill="#FBF9FF"/>
<path d="M29.4118 2.34456C29.6438 2.68945 29.6576 2.94681 29.5954 3.3454C29.4745 3.70331 29.3172 4.03987 29.1537 4.38036C29.1122 4.47102 29.0707 4.56169 29.028 4.6551C28.7153 5.32213 28.7153 5.32213 28.4022 5.52906C28.0263 5.57046 27.8248 5.56693 27.4958 5.37552C27.2725 5.13461 27.2381 5.03142 27.2089 4.71019C27.3188 4.32949 27.4993 3.9768 27.6679 3.61836C27.6936 3.56166 27.7192 3.50497 27.7457 3.44656C27.8251 3.27169 27.9067 3.09806 27.9891 2.92459C28.0393 2.81833 28.0895 2.71207 28.1412 2.60259C28.4865 2.07601 28.8608 2.12814 29.4118 2.34456Z" fill="#FBF9FF"/>
<path d="M36.7547 9.80537C37.036 9.99126 37.1055 10.1184 37.2079 10.4366C37.2151 10.7858 37.1529 10.894 36.9383 11.1702C36.7189 11.3213 36.4858 11.4333 36.2442 11.5455C36.1784 11.5767 36.1126 11.6079 36.0449 11.6401C34.7711 12.2331 34.7711 12.2331 34.2306 12.08C33.9689 11.8725 33.886 11.7671 33.8176 11.4431C33.8061 11.1702 33.8061 11.1702 33.9094 10.8972C34.1563 10.7063 34.3666 10.5808 34.6436 10.4423C34.6957 10.4153 34.7477 10.3884 34.8013 10.3606C34.9772 10.2701 35.1543 10.1824 35.332 10.0954C35.4169 10.0525 35.4169 10.0525 35.5035 10.0087C35.9389 9.80372 36.273 9.76638 36.7547 9.80537Z" fill="#FBF9FF"/>
<path d="M50.2963 27.6182H52.1752L52.1863 12.4317H50.2963V11.5696H58.6301C60.3617 11.5696 61.6475 11.9675 62.4875 12.7633C63.3349 13.5517 63.7586 14.5686 63.7586 15.8138C63.7586 17.2654 63.088 18.3376 61.747 19.0302C61.3491 19.2365 60.929 19.3986 60.4869 19.5165C61.9091 19.686 62.9959 20.1429 63.7475 20.8871C64.4991 21.6313 64.8749 22.545 64.8749 23.6282C64.8749 25.1166 64.3296 26.2993 63.2391 27.1761C62.1559 28.0456 60.6048 28.4803 58.5859 28.4803H50.2963V27.6182ZM57.8674 19.2844C59.4664 19.2844 60.4206 18.5991 60.7301 17.2286C60.8259 16.816 60.8738 16.3739 60.8738 15.9023C60.8738 14.7823 60.6933 13.9717 60.3322 13.4707C59.8459 12.778 58.9248 12.4317 57.569 12.4317H55.1595V19.2844H57.8674ZM57.7237 27.6182C59.0648 27.6182 60.089 27.2977 60.7964 26.6566C61.5112 26.0156 61.8685 25.1056 61.8685 23.9266C61.8685 22.195 61.1796 21.0381 59.8017 20.456C59.3006 20.2423 58.689 20.1355 57.9669 20.1355H55.1595V27.6182H57.7237ZM66.8644 27.6072H69.075L69.086 12.4317H66.8644V11.5696H81.1557V16.3886H80.2935C80.2567 15.777 80.2051 15.2354 80.1388 14.7638C80.0725 14.2849 79.9325 13.8796 79.7188 13.548C79.2914 12.8701 78.4219 12.498 77.1103 12.4317H72.0592V19.3728H74.8224C75.4487 19.3728 75.9277 19.2734 76.2593 19.0744C76.5982 18.8681 76.8045 18.5107 76.8782 18.0023C76.893 17.8549 76.904 17.7002 76.9114 17.5381C76.9261 17.3686 76.9409 17.2028 76.9556 17.0407H77.884V22.7439H76.9556C76.9409 22.5745 76.9261 22.3792 76.9114 22.1581C76.904 21.9371 76.893 21.7529 76.8782 21.6055C76.8045 21.0971 76.5945 20.7434 76.2482 20.5444C75.9093 20.3381 75.434 20.235 74.8224 20.235H72.0592V27.6182H76.7898C78.7277 27.6182 79.903 26.723 80.3156 24.9324C80.4335 24.4166 80.5109 23.8861 80.5478 23.3408H81.4099V28.4803H66.8644V27.6072ZM83.2888 27.6182H84.4826L90.7163 11.5696H91.9984L98.6633 27.6182H99.7907V28.4803H93.7669V27.6182H95.4248L93.8332 23.7608H87.1242L85.6652 27.6182H87.6547V28.4803H83.2888V27.6182ZM93.4795 22.8987L90.3405 15.2612L87.4558 22.8987H93.4795ZM114.458 12.7633C114.752 12.417 114.907 12.0191 114.922 11.5696H115.828V16.2007H114.889C114.675 14.9775 114.089 14.0159 113.131 13.3159C112.181 12.6159 111.146 12.2659 110.026 12.2659C106.297 12.2659 104.448 14.8707 104.477 20.0802C104.499 22.1508 104.912 23.8713 105.715 25.2419C106.643 26.8261 107.992 27.6182 109.76 27.6182C111.109 27.6182 112.247 27.3824 113.176 26.9109C114.111 26.4319 114.845 25.7871 115.375 24.9766L115.95 25.5071C115.67 26.1777 115.088 26.8187 114.204 27.4303C112.988 28.2777 111.462 28.7014 109.628 28.7014C107.019 28.7014 104.941 27.8909 103.394 26.2698C101.846 24.6413 101.073 22.5708 101.073 20.0581C101.073 17.5455 101.843 15.4675 103.383 13.8243C104.93 12.1738 107.078 11.3485 109.827 11.3485C111.315 11.3485 112.612 11.6506 113.717 12.2548C114.027 12.4243 114.274 12.5938 114.458 12.7633ZM117.575 27.6182H119.299L119.31 12.4317H117.575V11.5696H124.151V12.4317H122.283V19.5718H130.506L130.517 12.4317H128.65V11.5696H135.226V12.4317H133.491V27.6182H135.215V28.4803H128.65V27.6182H130.506V20.4339H122.283V27.6182H124.14V28.4803H117.575V27.6182ZM144.554 27.6182H146.433L146.445 12.4317H144.554V11.5696H152.888C154.62 11.5696 155.906 11.9675 156.746 12.7633C157.593 13.5517 158.017 14.5686 158.017 15.8138C158.017 17.2654 157.346 18.3376 156.005 19.0302C155.607 19.2365 155.187 19.3986 154.745 19.5165C156.167 19.686 157.254 20.1429 158.006 20.8871C158.757 21.6313 159.133 22.545 159.133 23.6282C159.133 25.1166 158.588 26.2993 157.497 27.1761C156.414 28.0456 154.863 28.4803 152.844 28.4803H144.554V27.6182ZM152.126 19.2844C153.725 19.2844 154.679 18.5991 154.988 17.2286C155.084 16.816 155.132 16.3739 155.132 15.9023C155.132 14.7823 154.951 13.9717 154.59 13.4707C154.104 12.778 153.183 12.4317 151.827 12.4317H149.418V19.2844H152.126ZM151.982 27.6182C153.323 27.6182 154.347 27.2977 155.055 26.6566C155.769 26.0156 156.127 25.1056 156.127 23.9266C156.127 22.195 155.438 21.0381 154.06 20.456C153.559 20.2423 152.947 20.1355 152.225 20.1355H149.418V27.6182H151.982ZM162.361 12.4317H160.846V11.5696H166.947V12.4317H165.334V22.6776C165.334 25.3524 166.085 26.9366 167.588 27.4303C168.09 27.5924 168.576 27.6735 169.047 27.6735C169.526 27.6735 169.939 27.6514 170.285 27.6072C170.639 27.563 170.989 27.4782 171.335 27.353C172.109 27.0582 172.743 26.5277 173.236 25.7614C173.738 24.995 173.988 23.9008 173.988 22.4787V12.4317H172.264V11.5696H176.685V12.4317H175.071V22.6334C175.071 24.6745 174.541 26.1961 173.48 27.1982C172.419 28.2003 170.978 28.7014 169.158 28.7014C165.732 28.7014 163.58 27.4045 162.703 24.8108C162.467 24.1182 162.349 23.2818 162.349 22.3018L162.361 12.4317ZM178.277 27.6182H180.487L180.498 12.4317H178.277V11.5696H185.726C190.169 11.5696 193.043 12.9733 194.347 15.7807C194.885 16.9375 195.154 18.3081 195.154 19.8923C195.154 21.9997 194.543 23.8382 193.319 25.4077C192.332 26.6677 190.899 27.5556 189.02 28.0714C188.032 28.344 186.883 28.4803 185.571 28.4803H178.277V27.6182ZM185.439 27.6182C187.76 27.6182 189.421 27.0398 190.424 25.8829C191.426 24.7261 191.927 22.755 191.927 19.9697V19.6271C191.883 16.9597 191.345 15.0954 190.313 14.0343C189.289 12.9659 187.712 12.4317 185.582 12.4317H183.471V27.6182H185.439ZM197.155 27.6182H199.365L199.376 12.4317H197.155V11.5696H204.604C209.048 11.5696 211.921 12.9733 213.225 15.7807C213.763 16.9375 214.032 18.3081 214.032 19.8923C214.032 21.9997 213.421 23.8382 212.198 25.4077C211.21 26.6677 209.777 27.5556 207.898 28.0714C206.911 28.344 205.761 28.4803 204.45 28.4803H197.155V27.6182ZM204.317 27.6182C206.638 27.6182 208.3 27.0398 209.302 25.8829C210.304 24.7261 210.805 22.755 210.805 19.9697V19.6271C210.761 16.9597 210.223 15.0954 209.191 14.0343C208.167 12.9659 206.59 12.4317 204.461 12.4317H202.35V27.6182H204.317ZM220.067 27.6182H222.256L222.267 21.9592L216.608 12.4317H215.226V11.5696H222.344V12.4317H220.1L224.621 20.3786L229.108 12.4317H227.075V11.5696H231.96V12.4317H230.291L225.24 21.2739V27.6182H227.439V28.4803H220.067V27.6182Z" fill="#FBF9FF"/>
</svg>
