<svg width="323" height="170" viewBox="0 0 323 170" fill="none" xmlns="http://www.w3.org/2000/svg">
<path d="M2.64604 152.128H5.94606L5.96547 125.456H2.64604V123.942H17.2826C20.3238 123.942 22.582 124.641 24.0573 126.039C25.5456 127.423 26.2897 129.209 26.2897 131.396C26.2897 133.946 25.112 135.829 22.7567 137.045C22.0579 137.408 21.3203 137.692 20.5438 137.899C23.0414 138.197 24.9503 138.999 26.2703 140.306C27.5903 141.614 28.2503 143.218 28.2503 145.121C28.2503 147.735 27.2926 149.812 25.3773 151.352C23.475 152.879 20.7508 153.642 17.2049 153.642H2.64604V152.128ZM15.9432 137.492C18.7514 137.492 20.4273 136.288 20.9708 133.881C21.1391 133.156 21.2232 132.38 21.2232 131.552C21.2232 129.585 20.9061 128.161 20.272 127.281C19.4179 126.065 17.8002 125.456 15.419 125.456H11.1873V137.492H15.9432ZM15.6908 152.128C18.0461 152.128 19.845 151.565 21.0873 150.439C22.3426 149.314 22.9703 147.715 22.9703 145.645C22.9703 142.604 21.7603 140.572 19.3402 139.549C18.4602 139.174 17.3861 138.986 16.1179 138.986H11.1873V152.128H15.6908ZM31.7444 152.109H35.6268L35.6462 125.456H31.7444V123.942H56.844V132.406H55.3299C55.2652 131.332 55.1746 130.381 55.0581 129.552C54.9416 128.711 54.6957 127.999 54.3204 127.417C53.5699 126.226 52.0428 125.573 49.7392 125.456H40.868V137.647H45.721C46.821 137.647 47.6622 137.472 48.2445 137.123C48.8398 136.761 49.2022 136.133 49.3316 135.24C49.3575 134.981 49.3769 134.709 49.3898 134.425C49.4157 134.127 49.4416 133.836 49.4675 133.551H51.0981V143.568H49.4675C49.4416 143.27 49.4157 142.927 49.3898 142.539C49.3769 142.151 49.3575 141.827 49.3316 141.568C49.2022 140.675 48.8334 140.054 48.2251 139.705C47.6298 139.342 46.7951 139.161 45.721 139.161H40.868V152.128H49.1763C52.5798 152.128 54.644 150.556 55.3687 147.411C55.5757 146.505 55.7116 145.574 55.7763 144.616H57.2905V153.642H31.7444V152.109ZM60.5905 152.128H62.687L73.6353 123.942H75.887L87.5924 152.128H89.5724V153.642H78.9929V152.128H81.9047L79.1094 145.354H67.3264L64.764 152.128H68.2582V153.642H60.5905V152.128ZM78.4882 143.839L72.9753 130.426L67.9088 143.839H78.4882ZM115.332 126.039C115.85 125.431 116.121 124.732 116.147 123.942H117.739V132.076H116.089C115.714 129.928 114.685 128.239 113.003 127.009C111.333 125.78 109.515 125.165 107.548 125.165C101 125.165 97.7513 129.74 97.803 138.889C97.8419 142.526 98.5666 145.548 99.9772 147.955C101.608 150.737 103.976 152.128 107.082 152.128C109.45 152.128 111.45 151.714 113.08 150.886C114.724 150.045 116.011 148.912 116.943 147.489L117.953 148.421C117.461 149.598 116.438 150.724 114.885 151.798C112.75 153.287 110.071 154.031 106.849 154.031C102.268 154.031 98.6183 152.607 95.9007 149.76C93.183 146.9 91.8242 143.264 91.8242 138.851C91.8242 134.438 93.1765 130.788 95.8813 127.902C98.5989 125.003 102.371 123.554 107.198 123.554C109.813 123.554 112.09 124.085 114.031 125.146C114.575 125.443 115.008 125.741 115.332 126.039ZM120.806 152.128H123.834L123.854 125.456H120.806V123.942H132.356V125.456H129.076V137.996H143.518L143.537 125.456H140.257V123.942H151.807V125.456H148.759V152.128H151.787V153.642H140.257V152.128H143.518V139.511H129.076V152.128H132.337V153.642H120.806V152.128ZM168.19 152.128H171.491L171.51 125.456H168.19V123.942H182.827C185.868 123.942 188.126 124.641 189.602 126.039C191.09 127.423 191.834 129.209 191.834 131.396C191.834 133.946 190.656 135.829 188.301 137.045C187.602 137.408 186.865 137.692 186.088 137.899C188.586 138.197 190.495 138.999 191.815 140.306C193.135 141.614 193.795 143.218 193.795 145.121C193.795 147.735 192.837 149.812 190.922 151.352C189.019 152.879 186.295 153.642 182.749 153.642H168.19V152.128ZM181.488 137.492C184.296 137.492 185.972 136.288 186.515 133.881C186.684 133.156 186.768 132.38 186.768 131.552C186.768 129.585 186.451 128.161 185.816 127.281C184.962 126.065 183.345 125.456 180.963 125.456H176.732V137.492H181.488ZM181.235 152.128C183.591 152.128 185.389 151.565 186.632 150.439C187.887 149.314 188.515 147.715 188.515 145.645C188.515 142.604 187.305 140.572 184.885 139.549C184.005 139.174 182.931 138.986 181.662 138.986H176.732V152.128H181.235ZM199.463 125.456H196.804V123.942H207.519V125.456H204.685V143.451C204.685 148.149 206.005 150.931 208.645 151.798C209.525 152.083 210.379 152.225 211.207 152.225C212.048 152.225 212.773 152.187 213.381 152.109C214.003 152.031 214.617 151.882 215.225 151.662C216.584 151.145 217.697 150.213 218.564 148.867C219.444 147.521 219.884 145.599 219.884 143.102V125.456H216.856V123.942H224.621V125.456H221.787V143.374C221.787 146.958 220.855 149.631 218.991 151.391C217.128 153.151 214.598 154.031 211.401 154.031C205.384 154.031 201.605 151.753 200.065 147.198C199.651 145.981 199.444 144.512 199.444 142.791L199.463 125.456ZM227.416 152.128H231.298L231.318 125.456H227.416V123.942H240.5C248.303 123.942 253.35 126.408 255.641 131.338C256.586 133.37 257.058 135.777 257.058 138.559C257.058 142.261 255.984 145.489 253.836 148.246C252.102 150.459 249.584 152.018 246.284 152.924C244.55 153.403 242.531 153.642 240.228 153.642H227.416V152.128ZM239.995 152.128C244.072 152.128 246.99 151.112 248.75 149.081C250.51 147.049 251.39 143.587 251.39 138.695V138.094C251.312 133.409 250.367 130.135 248.556 128.271C246.757 126.395 243.987 125.456 240.247 125.456H236.54V152.128H239.995ZM260.572 152.128H264.454L264.473 125.456H260.572V123.942H273.655C281.459 123.942 286.506 126.408 288.796 131.338C289.741 133.37 290.214 135.777 290.214 138.559C290.214 142.261 289.139 145.489 286.991 148.246C285.257 150.459 282.74 152.018 279.44 152.924C277.706 153.403 275.687 153.642 273.383 153.642H260.572V152.128ZM273.15 152.128C277.227 152.128 280.145 151.112 281.905 149.081C283.665 147.049 284.545 143.587 284.545 138.695V138.094C284.468 133.409 283.523 130.135 281.711 128.271C279.912 126.395 277.143 125.456 273.403 125.456H269.695V152.128H273.15ZM300.812 152.128H304.656L304.675 142.189L294.736 125.456H292.31V123.942H304.811V125.456H300.871L308.81 139.414L316.691 125.456H313.12V123.942H321.7V125.456H318.768L309.897 140.986V152.128H313.76V153.642H300.812V152.128Z" fill="#388893"/>
<rect x="115.01" y="164.058" width="93.177" height="3.72708" rx="1.86354" fill="#388893"/>
<path d="M180.76 22.8756C186.244 27.5022 190.06 33.8248 191 40.9767C191.378 46.0616 190.914 50.6488 189.15 55.4283C188.988 55.903 188.828 56.3781 188.67 56.854C188.812 56.9459 188.954 57.0378 189.1 57.1324C190.488 58.0391 191.748 58.8925 192.835 60.1508C194.935 62.564 197.398 64.034 200.646 64.2719C205.796 64.4202 210.503 62.2369 214.734 59.5225C215.557 59.0798 216.075 59.2137 216.955 59.4677C217.647 60.0826 217.878 60.4645 218.049 61.3686C217.825 62.5543 217.109 62.9933 216.167 63.6547C210.858 67.1399 204.706 69.2447 198.322 68.185C194.255 67.3363 191.203 65.1149 188.557 62.0164C187.725 61.084 186.962 60.5178 185.709 60.3365C182.276 60.1487 179.505 62.0951 176.67 63.7744C173.229 65.8028 170.013 67.3017 165.898 66.4466C163.6 65.7248 161.771 64.2808 160.205 62.4972C158.996 61.1225 158.109 60.3946 156.205 60.2548C153.172 60.3741 150.431 62.2548 147.893 63.7449C144.633 65.6534 141.49 67.0645 137.613 66.596C134.618 65.8072 132.629 63.8691 130.557 61.7101C128.015 59.3134 125.342 58.3807 121.846 58.4532C117.619 58.6505 113.494 60.5059 110.055 62.864C109.276 63.371 108.88 63.5086 107.936 63.4635C106.831 63.1833 106.831 63.1833 106.452 62.5566C106.223 61.681 106.1 61.1388 106.483 60.303C108.64 57.4282 113.661 55.9297 116.999 54.9531C117.182 54.897 117.365 54.841 117.553 54.7832C121.899 53.6305 126.769 54.1943 130.701 56.3119C132.538 57.46 133.973 58.8644 135.456 60.4181C136.485 61.4712 137.309 62.301 138.858 62.3367C139.08 62.3308 139.302 62.325 139.531 62.319C139.42 62.1882 139.31 62.0574 139.196 61.9227C134.563 56.0685 132.939 48.5128 133.703 41.2162C134.132 37.9368 135.123 34.8403 136.655 31.9048C136.765 31.6837 136.876 31.4625 136.99 31.2347C138.868 27.6245 141.567 24.6174 144.805 22.1628C144.994 22.0185 145.184 21.8742 145.379 21.7256C155.887 14.0955 170.803 14.5442 180.76 22.8756ZM143.366 29.0535C139.093 34.1363 137.125 40.5972 137.68 47.189C138.297 52.3001 140.291 57.503 144.085 61.131C144.216 61.0593 144.346 60.9875 144.48 60.9137C154.082 55.6311 154.082 55.6311 158.472 56.5263C160.857 57.2872 162.77 58.8152 164.343 60.7133C165.159 61.6681 166.154 62.4461 167.418 62.6448C170.636 62.7264 173.321 61.0403 175.996 59.4528C178.241 58.1219 180.411 56.8828 183.019 56.4261C183.936 56.2105 183.936 56.2105 184.449 55.3884C184.606 55.0738 184.754 54.7551 184.895 54.4333C184.974 54.2649 185.053 54.0964 185.135 53.9229C187.692 48.2706 187.651 41.7723 185.476 36.0077C183.028 29.9667 178.387 25.0947 172.383 22.431C171.279 21.9667 170.157 21.5733 169.015 21.2123C168.763 21.1312 168.512 21.05 168.253 20.9664C159.111 18.54 149.498 22.246 143.366 29.0535Z" fill="#388893"/>
<path d="M132.58 76.5757C133.508 77.3989 134.36 78.2933 135.216 79.1894C136.499 80.4791 137.374 81.3449 139.261 81.417C142.372 81.3531 144.863 79.5766 147.448 78.0433C150.9 76.0152 154.385 74.4781 158.478 75.2958C160.77 76.0401 162.592 77.462 164.161 79.2488C165.179 80.406 165.893 81.1677 167.483 81.4319C170.962 81.6509 173.88 79.4663 176.738 77.7769C178.429 76.786 180.064 75.937 181.959 75.3877C182.108 75.3417 182.257 75.2958 182.411 75.2484C185.041 74.7376 187.543 75.1376 189.822 76.5033C191.232 77.4594 192.325 78.5505 193.44 79.8252C195.519 82.1046 198.106 83.0066 201.135 83.2288C201.333 83.237 201.531 83.2452 201.734 83.2537C203.154 83.3399 203.154 83.3399 203.9 84.0224C204.36 84.8511 204.371 85.3848 204.251 86.3178C203.829 87.0746 203.652 87.2285 202.813 87.5058C198.462 87.9092 194.6 86.4086 191.269 83.769C190.442 83.0776 189.721 82.3604 189.03 81.5359C188.05 80.4139 187.144 79.6076 185.647 79.2971C182.287 79.0627 179.201 81.2552 176.441 82.904C173.088 84.8988 169.881 86.2703 165.894 85.4574C163.598 84.7249 161.773 83.2914 160.205 81.5062C158.996 80.1314 158.109 79.4035 156.205 79.2637C152.964 79.3913 149.981 81.5166 147.272 83.1045C144.119 84.951 141.316 85.9839 137.613 85.6049C135.077 84.9509 133.207 83.4968 131.516 81.5656C129.594 79.3888 127.128 77.8546 124.19 77.5262C123.068 77.5282 121.947 77.5664 120.826 77.619C119.097 77.6562 119.097 77.6562 118.161 76.9813C117.585 76.1445 117.572 75.6692 117.718 74.6748C118.064 74.0919 118.285 73.7861 118.922 73.5276C123.756 72.668 128.651 73.5592 132.58 76.5757Z" fill="#388893"/>
<path d="M161.074 95.5289C162.338 96.3934 163.37 97.3195 164.343 98.4935C165.175 99.467 166.168 100.214 167.445 100.442C170.901 100.59 173.836 98.5646 176.69 96.8599C180.043 94.865 183.25 93.4935 187.237 94.3065C189.541 95.0418 191.839 96.5193 192.985 98.6735C193.132 99.6281 193.148 100.091 192.611 100.901C191.791 101.443 191.34 101.574 190.348 101.525C189.626 101.053 189.041 100.466 188.431 99.8616C187.064 98.6537 186.078 98.2998 184.244 98.3301C181.475 98.6759 179.013 100.404 176.67 101.792C173.229 103.821 170.013 105.319 165.899 104.464C163.6 103.743 161.771 102.299 160.206 100.515C158.996 99.1403 158.109 98.4124 156.206 98.2726C153.131 98.4041 150.467 100.275 147.906 101.792C144.579 103.752 141.548 105.107 137.614 104.614C135.14 103.966 132.811 102.463 131.381 100.337C131.127 99.4903 131.127 99.4903 131.142 98.6735C131.565 98.0078 131.868 97.6006 132.58 97.2479C133.569 97.1142 133.927 97.1835 134.752 97.7676C135.208 98.182 135.628 98.6149 136.055 99.0596C137.103 100.046 137.98 100.388 139.411 100.47C142.604 100.359 145.315 98.3572 147.973 96.7858C149.665 95.7948 151.299 94.9459 153.194 94.3965C153.343 94.3506 153.493 94.3046 153.646 94.2573C156.282 93.7454 158.798 94.1433 161.074 95.5289Z" fill="#388893"/>
<path d="M155.591 27.6278C156.476 28.2438 156.749 28.5881 156.94 29.6475C156.755 30.6727 156.413 31.08 155.591 31.6672C154.929 32.0983 154.259 32.5166 153.587 32.9333C150.922 34.6062 149.304 37.254 148.157 40.1154C147.57 41.5594 147.57 41.5594 146.872 42.033C146.086 42.1444 145.565 42.1251 144.805 41.8845C144.22 41.4093 144.22 41.4093 143.846 40.6964C143.631 37.4541 146.348 33.9225 148.383 31.619C149.537 30.4151 150.833 29.4787 152.235 28.5783C152.389 28.4745 152.543 28.3706 152.702 28.2636C153.688 27.6386 154.432 27.4364 155.591 27.6278Z" fill="#388893"/>
<path d="M120.361 42.7929C120.65 42.7883 120.65 42.7883 120.945 42.7836C121.256 42.781 121.256 42.781 121.574 42.7783C121.895 42.7754 121.895 42.7754 122.223 42.7725C122.677 42.7692 123.13 42.7667 123.583 42.7648C124.276 42.7607 124.968 42.7503 125.66 42.7398C126.101 42.7374 126.542 42.7354 126.982 42.7338C127.189 42.7296 127.395 42.7254 127.608 42.7212C128.585 42.7247 129.097 42.7581 129.948 43.2738C130.563 43.9371 130.662 44.3129 130.662 45.211C130.129 46.5445 130.129 46.5445 129.464 46.8743C129.12 46.8991 128.775 46.9096 128.43 46.9126C128.11 46.916 128.11 46.916 127.783 46.9195C127.436 46.921 127.436 46.921 127.082 46.9226C126.727 46.9246 126.727 46.9246 126.364 46.9267C125.862 46.9289 125.36 46.9305 124.858 46.9314C124.089 46.9337 123.32 46.9411 122.551 46.9486C122.064 46.9501 121.577 46.9514 121.09 46.9523C120.744 46.9567 120.744 46.9567 120.391 46.9612C120.176 46.9605 119.962 46.9598 119.741 46.959C119.458 46.9603 119.458 46.9603 119.17 46.9616C118.539 46.8499 118.337 46.6667 117.958 46.1615C117.559 44.526 117.559 44.526 118.138 43.5626C118.857 42.9093 119.42 42.8059 120.361 42.7929Z" fill="#388893"/>
<path d="M131.065 12.301C132.338 12.3371 132.954 12.9918 133.808 13.8612C134.036 14.0839 134.036 14.0839 134.267 14.3111C134.586 14.6252 134.901 14.9416 135.215 15.2603C135.694 15.7459 136.183 16.2205 136.674 16.6949C136.983 17.0022 137.291 17.31 137.598 17.6185C137.745 17.7594 137.891 17.9003 138.041 18.0455C138.749 18.7787 139.143 19.2859 139.181 20.3222C139.052 21.2123 139.052 21.2123 138.437 21.94C137.41 22.5143 137.063 22.4632 135.936 22.1628C135.324 21.7533 134.826 21.2573 134.312 20.7343C134.166 20.5904 134.02 20.4464 133.869 20.2981C133.563 19.994 133.258 19.6882 132.955 19.3807C132.491 18.9115 132.02 18.4497 131.549 17.9883C131.251 17.6913 130.953 17.3938 130.656 17.0959C130.516 16.9585 130.376 16.8211 130.231 16.6795C129.428 15.8548 129.004 15.2837 128.984 14.084C129.498 13.017 129.85 12.4659 131.065 12.301Z" fill="#388893"/>
<path d="M193.944 12.6584C194.724 13.1739 194.873 13.47 195.068 14.381C194.899 15.293 194.807 15.4674 194.212 16.1158C194.06 16.2815 193.908 16.4471 193.751 16.6178C192.743 17.681 191.726 18.7324 190.693 19.7718C190.582 19.8859 190.472 19.9999 190.358 20.1174C190.033 20.4528 189.703 20.7839 189.374 21.1149C189.085 21.4085 189.085 21.4085 188.79 21.7079C188.088 22.2407 187.629 22.3572 186.753 22.4004C186.063 22.0739 185.614 21.747 185.075 21.2124C184.862 19.6609 184.862 19.6609 185.334 18.8868C185.711 18.4574 186.107 18.068 186.526 17.6788C186.674 17.5344 186.822 17.39 186.974 17.2412C187.445 16.7831 187.923 16.3322 188.401 15.881C188.721 15.5715 189.04 15.2617 189.359 14.9514C192.142 12.2581 192.142 12.2581 193.944 12.6584Z" fill="#388893"/>
<path d="M197.794 43.1524C198.002 43.1512 198.211 43.1501 198.425 43.1489C198.864 43.1481 199.304 43.1503 199.743 43.1553C200.414 43.1616 201.084 43.1553 201.755 43.1477C202.182 43.1485 202.61 43.15 203.038 43.1524C203.337 43.1488 203.337 43.1488 203.643 43.1451C204.673 43.1656 205.093 43.2218 205.937 43.8611C206.551 44.6917 206.556 45.1527 206.408 46.1615C205.986 46.9183 205.809 47.0722 204.97 47.3495C204.292 47.3755 203.62 47.3885 202.941 47.3895C202.742 47.3902 202.543 47.391 202.338 47.3919C201.918 47.3931 201.497 47.3936 201.077 47.3936C200.434 47.3941 199.791 47.3984 199.148 47.4029C198.74 47.4036 198.331 47.4041 197.922 47.4043C197.73 47.406 197.538 47.4077 197.34 47.4095C195.653 47.4026 195.653 47.4026 194.903 46.8743C194.351 46.1093 194.291 45.4188 194.423 44.4982C195.409 43.1777 196.251 43.1338 197.794 43.1524Z" fill="#388893"/>
<path d="M163.502 0.777811C163.987 1.49969 164.042 1.64374 164.047 2.45455C164.05 2.74358 164.05 2.74358 164.054 3.03845C164.054 3.24563 164.053 3.45281 164.053 3.66627C164.054 3.8798 164.055 4.09334 164.056 4.31335C164.058 4.76473 164.058 5.21613 164.057 5.66752C164.056 6.35905 164.062 7.05035 164.068 7.74185C164.068 8.18026 164.068 8.61866 164.068 9.05707C164.07 9.26425 164.072 9.47143 164.075 9.68489C164.073 9.87758 164.072 10.0703 164.07 10.2688C164.07 10.4381 164.071 10.6075 164.071 10.7819C163.953 11.375 163.74 11.5798 163.262 11.9455C162.342 12.1819 161.8 12.2686 160.91 11.9158C160.282 11.382 160.149 11.064 159.906 10.2823C159.858 9.66236 159.833 9.06864 159.834 8.44912C159.833 8.27486 159.832 8.10061 159.831 7.92107C159.829 7.55382 159.829 7.18657 159.83 6.81931C159.831 6.26027 159.825 5.70153 159.819 5.14252C159.819 4.7844 159.819 4.42628 159.819 4.06817C159.817 3.90254 159.815 3.73691 159.812 3.56626C159.823 2.46509 160.039 1.71236 160.625 0.777811C161.647 0.102283 162.401 0.345693 163.502 0.777811Z" fill="#388893"/>
<path d="M146.243 6.48046C146.697 7.02238 146.965 7.61886 147.247 8.26255C147.326 8.43371 147.406 8.60487 147.488 8.78122C147.718 9.27914 147.94 9.78015 148.16 10.2822C148.273 10.5257 148.387 10.7692 148.503 11.0201C148.976 12.0892 149.217 12.6906 148.879 13.8464C148.474 14.4411 148.186 14.7434 147.465 14.8887C146.658 14.9319 146.208 14.9434 145.534 14.4618C144.81 13.5518 144.386 12.5432 143.921 11.4851C143.824 11.2727 143.728 11.0603 143.628 10.8415C142.5 8.319 142.5 8.319 142.917 7.14875C143.366 6.48046 143.366 6.48046 143.906 6.12405C144.839 5.95576 145.367 6.11788 146.243 6.48046Z" fill="#388893"/>
<path d="M129.404 27.6872C129.604 27.7782 129.805 27.8692 130.011 27.9629C131.113 28.4838 131.942 28.9253 132.58 30.004C132.58 30.9354 132.472 31.4704 131.95 32.2464C131.185 32.7458 130.584 32.7577 129.703 32.6177C128.774 32.3041 127.894 31.9024 127.007 31.489C126.769 31.3837 126.531 31.2783 126.286 31.1697C124.298 30.2622 124.298 30.2622 123.711 29.2911C123.614 28.3699 123.639 27.6801 124.19 26.915C125.683 25.7194 127.944 26.9853 129.404 27.6872Z" fill="#388893"/>
<path d="M180.76 6.48047C181.366 7.38117 181.402 8.05326 181.24 9.09419C180.924 10.0289 180.513 10.9078 180.086 11.797C179.978 12.0338 179.869 12.2706 179.758 12.5145C178.941 14.2565 178.941 14.2565 178.123 14.7969C177.142 14.905 176.616 14.8958 175.756 14.3959C175.173 13.7668 175.083 13.4973 175.007 12.6584C175.294 11.6642 175.766 10.7431 176.206 9.80703C176.273 9.65897 176.34 9.51091 176.409 9.35837C176.616 8.90171 176.83 8.44826 177.045 7.99524C177.176 7.71774 177.307 7.44023 177.442 7.15432C178.344 5.77915 179.321 5.91528 180.76 6.48047Z" fill="#388893"/>
<path d="M199.937 25.9646C200.671 26.45 200.853 26.7821 201.12 27.613C201.139 28.525 200.976 28.8076 200.416 29.5287C199.843 29.9233 199.234 30.216 198.603 30.5089C198.431 30.5905 198.26 30.672 198.083 30.7561C194.756 32.3046 194.756 32.3046 193.345 31.9049C192.661 31.3628 192.445 31.0876 192.266 30.2416C192.236 29.5287 192.236 29.5287 192.506 28.8159C193.151 28.3173 193.7 27.9895 194.423 27.6279C194.559 27.5575 194.695 27.4871 194.835 27.4146C195.295 27.1782 195.757 26.9491 196.221 26.722C196.443 26.6099 196.443 26.6099 196.669 26.4955C197.806 25.9602 198.679 25.8628 199.937 25.9646Z" fill="#388893"/>
</svg>
