<svg width="81" height="60" viewBox="0 0 81 60" fill="none" xmlns="http://www.w3.org/2000/svg">
<g id="Group 28">
<path id="Vector" d="M75.9515 12.1397C75.552 10.5434 74.7382 9.08084 73.5925 7.89968C72.4468 6.71853 71.0097 5.86065 69.4263 5.41268C63.641 4 40.5 4 40.5 4C40.5 4 17.359 4 11.5738 5.54722C9.99037 5.99519 8.55324 6.85307 7.40752 8.03423C6.26181 9.21538 5.44808 10.678 5.04853 12.2743C3.98974 18.1455 3.47183 24.1014 3.50131 30.0673C3.46357 36.078 3.98151 42.0794 5.04853 47.9948C5.48902 49.5415 6.32097 50.9485 7.46402 52.0798C8.60707 53.211 10.0226 54.0284 11.5738 54.4528C17.359 56 40.5 56 40.5 56C40.5 56 63.641 56 69.4263 54.4528C71.0097 54.0048 72.4468 53.1469 73.5925 51.9658C74.7382 50.7846 75.552 49.322 75.9515 47.7257C77.0021 41.8987 77.52 35.9882 77.4987 30.0673C77.5365 24.0565 77.0185 18.0551 75.9515 12.1397Z" stroke="#FBF9FF" stroke-width="6.72704" stroke-linecap="round" stroke-linejoin="round"/>
<path id="Vector_2" d="M32.932 41.0659L52.2723 30.0672L32.932 19.0685V41.0659Z" stroke="#FBF9FF" stroke-width="6.72704" stroke-linecap="round" stroke-linejoin="round"/>
</g>
</svg>
